<svg width="36" height="36" viewBox="0 0 36 36" fill="none" xmlns="http://www.w3.org/2000/svg">
<path d="M18 10.6216C20.4031 10.6216 20.6878 10.6308 21.6368 10.6741C22.5143 10.7141 22.9908 10.8607 23.308 10.984C23.7281 11.1473 24.0279 11.3423 24.3428 11.6572C24.6577 11.9722 24.8528 12.272 25.016 12.6921C25.1393 13.0092 25.2859 13.4857 25.3259 14.3632C25.3692 15.3122 25.3784 15.5969 25.3784 18C25.3784 20.4031 25.3692 20.6877 25.3259 21.6367C25.2859 22.5142 25.1393 22.9908 25.016 23.3079C24.8528 23.728 24.6577 24.0278 24.3428 24.3427C24.0279 24.6577 23.7281 24.8527 23.308 25.016C22.9908 25.1392 22.5143 25.2858 21.6368 25.3259C20.6879 25.3692 20.4033 25.3783 18 25.3783C15.5967 25.3783 15.3121 25.3692 14.3632 25.3259C13.4857 25.2858 13.0092 25.1392 12.6921 25.016C12.272 24.8527 11.9722 24.6577 11.6572 24.3427C11.3423 24.0278 11.1473 23.728 10.984 23.3079C10.8607 22.9908 10.7141 22.5142 10.6741 21.6367C10.6308 20.6877 10.6216 20.4031 10.6216 18C10.6216 15.5969 10.6308 15.3122 10.6741 14.3632C10.7141 13.4857 10.8607 13.0092 10.984 12.6921C11.1473 12.272 11.3423 11.9722 11.6572 11.6572C11.9722 11.3423 12.272 11.1473 12.6921 10.984C13.0092 10.8607 13.4857 10.7141 14.3632 10.6741C15.3123 10.6308 15.5969 10.6216 18 10.6216ZM18 9.00002C15.5558 9.00002 15.2493 9.01038 14.2893 9.05418C13.3314 9.09787 12.6771 9.25002 12.1047 9.47248C11.5128 9.70248 11.0109 10.0102 10.5106 10.5106C10.0102 11.0109 9.70248 11.5128 9.47252 12.1047C9.25002 12.6771 9.09786 13.3314 9.05417 14.2893C9.01037 15.2493 9.00001 15.5557 9.00001 18C9.00001 20.4442 9.01037 20.7507 9.05417 21.7107C9.09786 22.6686 9.25002 23.3228 9.47252 23.8953C9.70248 24.4871 10.0102 24.989 10.5106 25.4894C11.0109 25.9897 11.5128 26.2975 12.1047 26.5274C12.6771 26.7499 13.3314 26.9021 14.2893 26.9458C15.2493 26.9896 15.5558 27 18 27C20.4443 27 20.7508 26.9896 21.7107 26.9458C22.6686 26.9021 23.3229 26.7499 23.8954 26.5274C24.4872 26.2975 24.9891 25.9897 25.4895 25.4894C25.9898 24.989 26.2975 24.4871 26.5275 23.8953C26.75 23.3228 26.9022 22.6686 26.9459 21.7107C26.9897 20.7507 27 20.4442 27 18C27 15.5557 26.9897 15.2493 26.9459 14.2893C26.9022 13.3314 26.75 12.6771 26.5275 12.1047C26.2975 11.5128 25.9898 11.0109 25.4895 10.5106C24.9891 10.0102 24.4872 9.70248 23.8954 9.47248C23.3229 9.25002 22.6686 9.09787 21.7107 9.05418C20.7508 9.01038 20.4443 9.00002 18 9.00002Z" fill="#F38E59"/>
<path d="M18.0042 13.3826C15.4517 13.3826 13.3826 15.4517 13.3826 18.0042C13.3826 20.5566 15.4517 22.6258 18.0042 22.6258C20.5566 22.6258 22.6258 20.5566 22.6258 18.0042C22.6258 15.4517 20.5566 13.3826 18.0042 13.3826ZM18.0042 21.0042C16.3473 21.0042 15.0042 19.661 15.0042 18.0042C15.0042 16.3473 16.3473 15.0042 18.0042 15.0042C19.661 15.0042 21.0042 16.3473 21.0042 18.0042C21.0042 19.661 19.661 21.0042 18.0042 21.0042Z" fill="#F38E59"/>
<path d="M23.8881 13.1971C23.8881 13.7936 23.4045 14.2771 22.8081 14.2771C22.2116 14.2771 21.7281 13.7936 21.7281 13.1971C21.7281 12.6006 22.2116 12.1171 22.8081 12.1171C23.4045 12.1171 23.8881 12.6006 23.8881 13.1971Z" fill="#F38E59"/>
</svg>
