<svg width="36" height="33" viewBox="0 0 36 33" fill="none" xmlns="http://www.w3.org/2000/svg">
<path fill-rule="evenodd" clip-rule="evenodd" d="M14.0811 9.82017C14.0811 10.6762 13.37 11.3689 12.2581 11.3689C11.1895 11.3689 10.4785 10.6762 10.5005 9.82017C10.4785 8.92257 11.1895 8.25 12.2794 8.25C13.37 8.25 14.0597 8.92257 14.0811 9.82017ZM10.5899 22.5631V12.5924H13.9703V22.5625H10.5899V22.5631Z" fill="#F38E59"/>
<path fill-rule="evenodd" clip-rule="evenodd" d="M16.6798 15.7744C16.6798 14.5308 16.6351 13.4705 16.5904 12.5937H19.5267L19.6827 13.9597H19.7495C20.1944 13.3275 21.3063 12.37 23.1079 12.37C25.3318 12.37 27 13.7157 27 16.6506V22.5644H23.6195V17.0389C23.6195 15.7536 23.1306 14.8774 21.9073 14.8774C20.9728 14.8774 20.4172 15.4687 20.1951 16.0392C20.1057 16.2434 20.0617 16.5283 20.0617 16.8145V22.5644H16.6812V15.7744H16.6798Z" fill="#F38E59"/>
</svg>
